<mxfile host="app.diagrams.net" modified="2021-04-03T14:12:04.008Z" agent="5.0 (Windows NT 10.0; Win64; x64) AppleWebKit/537.36 (KHTML, like Gecko) Chrome/89.0.4389.90 Safari/537.36" etag="VdaGAIIpVvOmBMMRF89b" version="14.5.6" type="github">
  <diagram name="Page-1" id="e7e014a7-5840-1c2e-5031-d8a46d1fe8dd">
    <mxGraphModel dx="920" dy="514" grid="1" gridSize="10" guides="1" tooltips="1" connect="1" arrows="1" fold="1" page="1" pageScale="1" pageWidth="1169" pageHeight="826" background="#ffffff" math="0" shadow="0">
      <root>
        <mxCell id="0" />
        <mxCell id="1" parent="0" />
        <mxCell id="2" value="Customer" style="swimlane;whiteSpace=wrap" parent="1" vertex="1">
          <mxGeometry x="410" y="120" width="280" height="568" as="geometry" />
        </mxCell>
        <mxCell id="7" value="Search for a restaurant" style="" parent="2" vertex="1">
          <mxGeometry x="37.5" y="100" width="155" height="50" as="geometry" />
        </mxCell>
        <mxCell id="8" value="Select Item " style="" parent="2" vertex="1">
          <mxGeometry x="37.5" y="310" width="155" height="50" as="geometry" />
        </mxCell>
        <mxCell id="10" value="View Total Cost" style="" parent="2" vertex="1">
          <mxGeometry x="35" y="460" width="160" height="55" as="geometry" />
        </mxCell>
        <mxCell id="IYL_6dEC4UDWxEco9Q9W-75" value="" style="shape=rhombus;html=1;verticalLabelPosition=bottom;verticalAlignment=top;fontSize=9;" vertex="1" parent="2">
          <mxGeometry x="97.5" y="180" width="32.5" height="30" as="geometry" />
        </mxCell>
        <mxCell id="IYL_6dEC4UDWxEco9Q9W-76" value="" style="edgeStyle=elbowEdgeStyle;html=1;elbow=horizontal;align=right;verticalAlign=bottom;endArrow=none;rounded=0;labelBackgroundColor=none;startArrow=open;startSize=12;fontSize=9;" edge="1" source="IYL_6dEC4UDWxEco9Q9W-75" parent="2">
          <mxGeometry relative="1" as="geometry">
            <mxPoint x="115" y="150" as="targetPoint" />
          </mxGeometry>
        </mxCell>
        <mxCell id="IYL_6dEC4UDWxEco9Q9W-77" value="Open" style="edgeStyle=elbowEdgeStyle;html=1;elbow=vertical;verticalAlign=bottom;endArrow=open;rounded=0;labelBackgroundColor=none;endSize=12;fontSize=9;entryX=0.5;entryY=0;entryDx=0;entryDy=0;" edge="1" parent="2">
          <mxGeometry relative="1" as="geometry">
            <mxPoint x="114" y="310" as="targetPoint" />
            <mxPoint x="114" y="210" as="sourcePoint" />
            <Array as="points" />
          </mxGeometry>
        </mxCell>
        <mxCell id="IYL_6dEC4UDWxEco9Q9W-78" value="Closed" style="html=1;elbow=vertical;verticalAlign=bottom;endArrow=open;labelBackgroundColor=none;endSize=12;fontSize=9;rounded=0;edgeStyle=elbowEdgeStyle;exitX=1;exitY=0.5;exitDx=0;exitDy=0;" edge="1" source="IYL_6dEC4UDWxEco9Q9W-75" parent="2">
          <mxGeometry relative="1" as="geometry">
            <mxPoint x="200" y="196" as="targetPoint" />
            <mxPoint x="138" y="191" as="sourcePoint" />
            <Array as="points">
              <mxPoint x="218" y="196" />
              <mxPoint x="46" y="186" />
            </Array>
          </mxGeometry>
        </mxCell>
        <mxCell id="IYL_6dEC4UDWxEco9Q9W-79" style="edgeStyle=none;rounded=0;orthogonalLoop=1;jettySize=auto;html=1;exitX=0.5;exitY=1;exitDx=0;exitDy=0;fontSize=9;" edge="1" parent="2" source="IYL_6dEC4UDWxEco9Q9W-75" target="IYL_6dEC4UDWxEco9Q9W-75">
          <mxGeometry relative="1" as="geometry" />
        </mxCell>
        <mxCell id="IYL_6dEC4UDWxEco9Q9W-80" style="edgeStyle=none;rounded=0;orthogonalLoop=1;jettySize=auto;html=1;exitX=0.5;exitY=0;exitDx=0;exitDy=0;fontSize=9;" edge="1" parent="2" source="8" target="8">
          <mxGeometry relative="1" as="geometry" />
        </mxCell>
        <mxCell id="IYL_6dEC4UDWxEco9Q9W-85" value="" style="ellipse;html=1;shape=endState;fillColor=#000000;strokeColor=#ff0000;fontSize=9;" vertex="1" parent="2">
          <mxGeometry x="197.5" y="180" width="30" height="30" as="geometry" />
        </mxCell>
        <mxCell id="IYL_6dEC4UDWxEco9Q9W-117" value="" style="html=1;points=[];perimeter=orthogonalPerimeter;fillColor=#000000;strokeColor=none;fontSize=9;" vertex="1" parent="2">
          <mxGeometry x="-5" y="80" width="5" height="80" as="geometry" />
        </mxCell>
        <mxCell id="IYL_6dEC4UDWxEco9Q9W-119" value="" style="html=1;points=[];perimeter=orthogonalPerimeter;fillColor=#000000;strokeColor=none;fontSize=9;direction=south;" vertex="1" parent="2">
          <mxGeometry x="73.75" y="456.5" width="80" height="5" as="geometry" />
        </mxCell>
        <mxCell id="3" value="Restaurant Owner" style="swimlane;whiteSpace=wrap;startSize=23;" parent="1" vertex="1">
          <mxGeometry x="690" y="120" width="280" height="568" as="geometry" />
        </mxCell>
        <mxCell id="15" value="Update Restaurant &#xa;Timings" style="" parent="3" vertex="1">
          <mxGeometry x="20" y="100" width="110" height="50" as="geometry" />
        </mxCell>
        <mxCell id="16" value="Display Restaurant&#39;s&#xa; Menu" style="" parent="3" vertex="1">
          <mxGeometry x="20" y="220" width="110" height="50" as="geometry" />
        </mxCell>
        <mxCell id="17" value="" style="endArrow=open;endFill=1;rounded=0" parent="3" source="15" target="16" edge="1">
          <mxGeometry relative="1" as="geometry" />
        </mxCell>
        <mxCell id="18" value="Calculate Order &#xa;Cost" style="" parent="3" vertex="1">
          <mxGeometry x="20" y="325" width="110" height="50" as="geometry" />
        </mxCell>
        <mxCell id="19" value="" style="endArrow=open;endFill=1;rounded=0" parent="3" source="16" target="18" edge="1">
          <mxGeometry relative="1" as="geometry" />
        </mxCell>
        <mxCell id="21" value="Menu List?" style="rhombus;" parent="3" vertex="1">
          <mxGeometry x="151" y="225" width="109" height="45" as="geometry" />
        </mxCell>
        <mxCell id="22" value="Yes" style="edgeStyle=elbowEdgeStyle;elbow=horizontal;align=left;verticalAlign=bottom;endArrow=open;endSize=8;exitX=0.5;exitY=0;endFill=1;rounded=0;entryX=1;entryY=0;entryDx=0;entryDy=0;" parent="3" source="21" target="16" edge="1">
          <mxGeometry x="-0.7931" y="-10" relative="1" as="geometry">
            <mxPoint x="155" y="147.5" as="targetPoint" />
            <Array as="points">
              <mxPoint x="190" y="180" />
            </Array>
            <mxPoint as="offset" />
          </mxGeometry>
        </mxCell>
        <mxCell id="23" value="No" style="edgeStyle=elbowEdgeStyle;elbow=horizontal;align=left;verticalAlign=top;endArrow=open;endSize=8;endFill=1;rounded=0" parent="3" source="21" target="30" edge="1">
          <mxGeometry y="10" relative="1" as="geometry">
            <mxPoint x="190" y="305" as="targetPoint" />
            <mxPoint y="-1" as="offset" />
          </mxGeometry>
        </mxCell>
        <mxCell id="24" value="" style="endArrow=open;endFill=1;rounded=0" parent="3" source="16" target="21" edge="1">
          <mxGeometry relative="1" as="geometry" />
        </mxCell>
        <mxCell id="30" value="Update Menu" style="" parent="3" vertex="1">
          <mxGeometry x="140" y="325" width="110" height="50" as="geometry" />
        </mxCell>
        <mxCell id="IYL_6dEC4UDWxEco9Q9W-57" value="Login" style="shape=rhombus;html=1;verticalLabelPosition=bottom;verticalAlignment=top;" vertex="1" parent="1">
          <mxGeometry x="290" y="220" width="40" height="40" as="geometry" />
        </mxCell>
        <mxCell id="IYL_6dEC4UDWxEco9Q9W-59" value="Yes" style="edgeStyle=elbowEdgeStyle;html=1;elbow=vertical;verticalAlign=bottom;endArrow=open;rounded=0;labelBackgroundColor=none;endSize=12;" edge="1" source="IYL_6dEC4UDWxEco9Q9W-57" parent="1">
          <mxGeometry relative="1" as="geometry">
            <mxPoint x="410" y="240" as="targetPoint" />
          </mxGeometry>
        </mxCell>
        <mxCell id="IYL_6dEC4UDWxEco9Q9W-60" value="No" style="edgeStyle=elbowEdgeStyle;html=1;elbow=vertical;verticalAlign=bottom;endArrow=open;rounded=0;labelBackgroundColor=none;endSize=12;" edge="1" source="IYL_6dEC4UDWxEco9Q9W-57" parent="1">
          <mxGeometry relative="1" as="geometry">
            <mxPoint x="210" y="240" as="targetPoint" />
          </mxGeometry>
        </mxCell>
        <mxCell id="IYL_6dEC4UDWxEco9Q9W-62" value="" style="ellipse;html=1;shape=startState;fillColor=#000000;strokeColor=#ff0000;" vertex="1" parent="1">
          <mxGeometry x="295" y="130" width="30" height="30" as="geometry" />
        </mxCell>
        <mxCell id="IYL_6dEC4UDWxEco9Q9W-63" value="" style="edgeStyle=orthogonalEdgeStyle;html=1;verticalAlign=bottom;endArrow=open;endSize=8;strokeColor=#ff0000;" edge="1" source="IYL_6dEC4UDWxEco9Q9W-62" parent="1">
          <mxGeometry relative="1" as="geometry">
            <mxPoint x="310" y="220" as="targetPoint" />
          </mxGeometry>
        </mxCell>
        <mxCell id="IYL_6dEC4UDWxEco9Q9W-66" style="edgeStyle=orthogonalEdgeStyle;rounded=0;orthogonalLoop=1;jettySize=auto;html=1;exitX=0.5;exitY=1;exitDx=0;exitDy=0;entryX=0.5;entryY=0;entryDx=0;entryDy=0;" edge="1" parent="1" source="IYL_6dEC4UDWxEco9Q9W-64" target="IYL_6dEC4UDWxEco9Q9W-65">
          <mxGeometry relative="1" as="geometry" />
        </mxCell>
        <mxCell id="IYL_6dEC4UDWxEco9Q9W-64" value="Register" style="shape=rect;html=1;rounded=1;whiteSpace=wrap;align=center;" vertex="1" parent="1">
          <mxGeometry x="90" y="218.5" width="120" height="43" as="geometry" />
        </mxCell>
        <mxCell id="IYL_6dEC4UDWxEco9Q9W-67" style="edgeStyle=orthogonalEdgeStyle;rounded=0;orthogonalLoop=1;jettySize=auto;html=1;exitX=1;exitY=0.75;exitDx=0;exitDy=0;" edge="1" parent="1" source="IYL_6dEC4UDWxEco9Q9W-65" target="IYL_6dEC4UDWxEco9Q9W-57">
          <mxGeometry relative="1" as="geometry" />
        </mxCell>
        <mxCell id="IYL_6dEC4UDWxEco9Q9W-65" value="Provide Info" style="shape=rect;html=1;rounded=1;whiteSpace=wrap;align=center;" vertex="1" parent="1">
          <mxGeometry x="90" y="290" width="120" height="43" as="geometry" />
        </mxCell>
        <mxCell id="IYL_6dEC4UDWxEco9Q9W-71" style="edgeStyle=orthogonalEdgeStyle;rounded=0;orthogonalLoop=1;jettySize=auto;html=1;exitX=0;exitY=0.5;exitDx=0;exitDy=0;fontSize=9;entryX=1;entryY=0.5;entryDx=0;entryDy=0;" edge="1" parent="1" source="16" target="8">
          <mxGeometry relative="1" as="geometry" />
        </mxCell>
        <mxCell id="IYL_6dEC4UDWxEco9Q9W-121" style="edgeStyle=none;rounded=0;orthogonalLoop=1;jettySize=auto;html=1;exitX=0.5;exitY=1;exitDx=0;exitDy=0;fontSize=9;" edge="1" parent="1" source="8">
          <mxGeometry relative="1" as="geometry">
            <mxPoint x="524.7058823529412" y="580" as="targetPoint" />
          </mxGeometry>
        </mxCell>
        <mxCell id="IYL_6dEC4UDWxEco9Q9W-122" style="edgeStyle=none;rounded=0;orthogonalLoop=1;jettySize=auto;html=1;exitX=0;exitY=0.5;exitDx=0;exitDy=0;entryX=0.331;entryY=0.321;entryDx=0;entryDy=0;entryPerimeter=0;fontSize=9;" edge="1" parent="1" source="18" target="IYL_6dEC4UDWxEco9Q9W-119">
          <mxGeometry relative="1" as="geometry" />
        </mxCell>
      </root>
    </mxGraphModel>
  </diagram>
</mxfile>
